<?xml version="1.0" standalone="no"?>
<!DOCTYPE svg PUBLIC "-//W3C//DTD SVG 20010904//EN"
 "http://www.w3.org/TR/2001/REC-SVG-20010904/DTD/svg10.dtd">
<svg version="1.0" xmlns="http://www.w3.org/2000/svg"
 width="512.000000pt" height="512.000000pt" viewBox="0 0 512.000000 512.000000"
 preserveAspectRatio="xMidYMid meet">

<g transform="translate(0.000000,512.000000) scale(0.100000,-0.100000)"
fill="#000000" stroke="none">
<path d="M470 5104 c-223 -48 -408 -236 -456 -464 -10 -49 -14 -101 -11 -150
4 -53 154 -668 506 -2080 421 -1684 507 -2017 538 -2080 50 -103 159 -213 263
-264 240 -117 504 -74 691 113 124 125 117 104 350 1034 112 449 206 817 209
817 3 0 97 -368 209 -817 159 -635 212 -832 237 -883 177 -353 676 -428 960
-145 126 126 84 -20 645 2225 352 1412 502 2027 506 2080 19 284 -189 556
-472 615 -204 43 -397 -16 -546 -164 -124 -125 -117 -104 -350 -1034 -112
-449 -206 -817 -209 -817 -3 0 -97 368 -209 817 -233 930 -226 909 -350 1034
-238 238 -604 238 -842 0 -124 -125 -117 -104 -350 -1034 -112 -449 -206 -817
-209 -817 -3 0 -97 368 -209 817 -233 930 -226 909 -350 1034 -149 149 -347
207 -551 163z m264 -318 c61 -30 110 -80 137 -140 10 -23 142 -538 294 -1146
152 -608 283 -1115 291 -1128 53 -81 195 -81 248 0 8 13 139 520 291 1128 167
670 286 1125 301 1157 49 102 142 157 264 158 62 0 85 -5 132 -28 63 -31 112
-81 139 -141 10 -23 142 -538 294 -1146 152 -608 283 -1115 291 -1128 53 -81
195 -81 248 0 8 13 139 520 291 1128 167 670 286 1125 301 1157 49 102 143
158 264 158 122 0 215 -56 265 -160 56 -114 90 42 -460 -2155 -273 -1092 -504
-2003 -514 -2025 -27 -61 -76 -111 -139 -142 -81 -40 -183 -40 -264 0 -63 31
-112 81 -139 141 -10 23 -142 538 -294 1146 -152 608 -283 1115 -291 1128 -53
81 -195 81 -248 0 -8 -13 -139 -520 -291 -1128 -152 -608 -284 -1123 -294
-1146 -27 -60 -76 -110 -139 -141 -81 -40 -183 -40 -264 0 -63 31 -112 81
-139 142 -26 58 -1009 3998 -1009 4043 0 56 25 133 59 179 84 116 243 154 375
89z"/>
</g>
</svg>
